<svg width="74" height="71" viewBox="0 0 74 71" fill="none" xmlns="http://www.w3.org/2000/svg">
<g clip-path="url(#clip0_151_257)">
<path d="M28.3693 67.355C24.8294 69.0451 20.4523 67.5847 18.9282 63.8103C12.9556 49.0224 11.7772 34.1154 16.4958 19.7447C17.8322 15.6676 22.4634 14.1348 26.0805 15.9738L27.0646 16.4718L26.2512 18.4349L26.2393 18.4683C21.0204 32.6059 21.8606 49.0826 28.83 63.6802L30.1732 66.4937L28.3693 67.355ZM33.4028 64.9518L68.9216 47.994C72.9045 46.0925 72.5596 39.7027 68.6518 37.6454L43.3148 24.8093C30.2674 18.1001 34.6986 20.3636 30.2674 18.1001L29.585 19.7388C24.7315 32.9205 25.4912 48.3805 32.0611 62.1415L33.4028 64.9518ZM35.7158 46.9975C36.0332 46.8462 36.3773 46.7589 36.7284 46.7405C37.0796 46.7221 37.4309 46.773 37.7622 46.8903C38.0936 47.0076 38.3985 47.189 38.6597 47.4242C38.9209 47.6593 39.1331 47.9436 39.2843 48.2608C39.4354 48.578 39.5226 48.9219 39.5408 49.2728C39.559 49.6238 39.5078 49.9749 39.3903 50.3062C39.2727 50.6375 39.091 50.9424 38.8556 51.2036C38.6202 51.4647 38.3356 51.677 38.0182 51.8283C37.3773 52.1343 36.6412 52.1734 35.9718 51.9369C35.3024 51.7004 34.7546 51.2078 34.4488 50.5674C34.1431 49.927 34.1044 49.1913 34.3414 48.5221C34.5784 47.8529 35.0716 47.305 35.7125 46.9991L35.7158 46.9975ZM37.5932 34.3006C38.2341 33.9946 38.9702 33.9555 39.6396 34.192C40.309 34.4285 40.8568 34.9211 41.1626 35.5615C41.4683 36.2019 41.5069 36.9376 41.2699 37.6068C41.0329 38.276 40.5398 38.8238 39.8989 39.1298C39.258 39.4358 38.5218 39.4749 37.8525 39.2384C37.1831 39.0019 36.6353 38.5093 36.3295 37.8689C36.0238 37.2285 35.9851 36.4928 36.2221 35.8236C36.4591 35.1544 36.9523 34.6066 37.5932 34.3006ZM50.2575 40.0231C50.9018 39.7155 51.6419 39.6762 52.3148 39.9139C52.9878 40.1517 53.5386 40.6469 53.8459 41.2907C54.1533 41.9346 54.1922 42.6742 53.9539 43.347C53.7156 44.0198 53.2198 44.5706 52.5755 44.8782C51.9311 45.1858 51.1911 45.2251 50.5181 44.9873C49.8452 44.7496 49.2944 44.2544 48.987 43.6105C48.6797 42.9667 48.6408 42.227 48.8791 41.5543C49.1173 40.8815 49.6132 40.3307 50.2575 40.0231Z" fill="#72D4FE"/>
</g>
<defs>
<clipPath id="clip0_151_257">
<rect width="50" height="58" fill="white" transform="translate(21.542 70.1104) rotate(-115.521)"/>
</clipPath>
</defs>
</svg>
