<svg width="72" height="78" viewBox="0 0 72 78" fill="none" xmlns="http://www.w3.org/2000/svg">
<path d="M26.3477 26V45.5L41.6737 54.925L44.2824 51.025L31.239 43.225V26H26.3477Z" fill="#72D4FE"/>
<path d="M52.1738 39C52.6653 42.2303 52.4486 45.5284 51.5385 48.6672C50.6284 51.806 49.0466 54.711 46.902 57.182C44.7574 59.6531 42.1009 61.6315 39.1155 62.9812C36.1301 64.3308 32.8867 65.0196 29.6086 65C16.8912 65 6.78248 54.925 6.78248 42.25C6.78248 29.575 16.8912 19.5 29.6086 19.5C31.8912 19.5 34.076 19.825 36.1303 20.4425V13.7475C34.0434 13.26 31.8586 13 29.6086 13C13.3042 13 0.260742 26 0.260742 42.25C0.260742 58.5 13.3042 71.5 29.6086 71.5C33.7423 71.5171 37.8327 70.66 41.6096 68.9854C45.3865 67.3108 48.764 64.8567 51.5191 61.7852C54.2743 58.7137 56.3443 55.0946 57.5926 51.1669C58.8409 47.2392 59.239 43.0923 58.7607 39H52.1738Z" fill="#72D4FE"/>
<path d="M58.9567 16.25V6.5H52.435V16.25H42.6523V22.75H52.435V32.5H58.9567V22.75H68.7393V16.25H58.9567Z" fill="#72D4FE"/>
</svg>
