<svg width="62" height="66" viewBox="0 0 62 66" fill="none" xmlns="http://www.w3.org/2000/svg">
<g clip-path="url(#clip0_145_48)">
<path d="M26.8122 6.25C31.7996 6.24967 36.6863 7.65346 40.9131 10.3007C45.14 12.948 48.5361 16.7318 50.7129 21.219C52.8897 25.7063 53.7592 30.7158 53.2219 35.6741C52.6846 40.6325 50.7622 45.3394 47.6747 49.2562L59.0872 60.6687C59.6564 61.2581 59.9714 62.0475 59.9643 62.8669C59.9572 63.6862 59.6285 64.47 59.0491 65.0494C58.4697 65.6288 57.6859 65.9575 56.8666 65.9646C56.0472 65.9717 55.2578 65.6567 54.6684 65.0875L43.2559 53.675C39.9292 56.2968 36.0238 58.0849 31.8654 58.8904C27.707 59.6958 23.4163 59.4951 19.3513 58.305C15.2863 57.1149 11.5648 54.97 8.49731 52.0491C5.42984 49.1283 3.10534 45.5162 1.71775 41.5143C0.33016 37.5124 -0.0802854 33.2367 0.520657 29.0439C1.1216 24.8511 2.7165 20.8628 5.17231 17.4117C7.62811 13.9607 10.8736 11.1469 14.638 9.20529C18.4024 7.26364 22.5765 6.25036 26.8122 6.25ZM26.8122 12.5C21.425 12.5 16.2584 14.6401 12.4491 18.4494C8.63975 22.2587 6.49969 27.4253 6.49969 32.8125C6.49969 38.1997 8.63975 43.3663 12.4491 47.1756C16.2584 50.9849 21.425 53.125 26.8122 53.125C32.1994 53.125 37.366 50.9849 41.1753 47.1756C44.9846 43.3663 47.1247 38.1997 47.1247 32.8125C47.1247 27.4253 44.9846 22.2587 41.1753 18.4494C37.366 14.6401 32.1994 12.5 26.8122 12.5ZM26.8122 15.625C31.3706 15.625 35.7423 17.4358 38.9656 20.6591C42.1889 23.8824 43.9997 28.2541 43.9997 32.8125C43.9997 37.3709 42.1889 41.7426 38.9656 44.9659C35.7423 48.1892 31.3706 50 26.8122 50C22.2538 50 17.8821 48.1892 14.6588 44.9659C11.4355 41.7426 9.62469 37.3709 9.62469 32.8125C9.62469 28.2541 11.4355 23.8824 14.6588 20.6591C17.8821 17.4358 22.2538 15.625 26.8122 15.625Z" fill="#E8AC12"/>
</g>
<defs>
<clipPath id="clip0_145_48">
<rect width="62" height="66" fill="white"/>
</clipPath>
</defs>
</svg>
